<?xml version="1.0"?>
<svg xmlns="http://www.w3.org/2000/svg">
  <defs>
    <style><![CDATA[
      .sprite { display: none; }
      .sprite:target { display: inline; }
    ]]>
    </style>
   </defs>

  <g class="sprite" id="radio-off" viewBox="0 0 25 25">
    <path fill="#e6ebe9" d="M12.5 4c4.687 0 8.5 3.813 8.5 8.5 0 4.687-3.813 8.5-8.5 8.5C7.813 21 4 17.187 4 12.5 4 7.813 7.813 4 12.5 4m0-4C5.597 0 0 5.597 0 12.5S5.597 25 12.5 25 25 19.403 25 12.5 19.403 0 12.5 0z"/>
  </g>
  <g class="sprite" id="radio-off-hover" viewBox="0 0 25 25">
    <path fill="#ffffff" d="M12.5 4c4.687 0 8.5 3.813 8.5 8.5 0 4.687-3.813 8.5-8.5 8.5C7.813 21 4 17.187 4 12.5 4 7.813 7.813 4 12.5 4m0-4C5.597 0 0 5.597 0 12.5S5.597 25 12.5 25 25 19.403 25 12.5 19.403 0 12.5 0z"/>
  </g>
  <g class="sprite" id="radio-off-disabled" viewBox="0 0 25 25">
    <path fill="#ffffff" opacity="0.4" d="M12.5 4c4.687 0 8.5 3.813 8.5 8.5 0 4.687-3.813 8.5-8.5 8.5C7.813 21 4 17.187 4 12.5 4 7.813 7.813 4 12.5 4m0-4C5.597 0 0 5.597 0 12.5S5.597 25 12.5 25 25 19.403 25 12.5 19.403 0 12.5 0z"/>
  </g>
  <g class="sprite" id="radio-on" viewBox="0 0 25 25">
    <path fill="#e6ebe9" d="M12.5 4c4.687 0 8.5 3.813 8.5 8.5 0 4.687-3.813 8.5-8.5 8.5C7.813 21 4 17.187 4 12.5 4 7.813 7.813 4 12.5 4m0-4C5.597 0 0 5.597 0 12.5S5.597 25 12.5 25 25 19.403 25 12.5 19.403 0 12.5 0z"/>
    <circle fill="#e6ebe9" cx="12.5" cy="12.5" r="4.5"/>
  </g>
  <g class="sprite" id="radio-on-hover" viewBox="0 0 25 25">
    <path fill="#ffffff" d="M12.5 4c4.687 0 8.5 3.813 8.5 8.5 0 4.687-3.813 8.5-8.5 8.5C7.813 21 4 17.187 4 12.5 4 7.813 7.813 4 12.5 4m0-4C5.597 0 0 5.597 0 12.5S5.597 25 12.5 25 25 19.403 25 12.5 19.403 0 12.5 0z"/>
    <circle fill="#ffffff" cx="12.5" cy="12.5" r="4.5"/>
  </g>
  <g class="sprite" id="radio-on-disabled" viewBox="0 0 25 25">
    <path fill="#ffffff" opacity="0.4" d="M12.5 4c4.687 0 8.5 3.813 8.5 8.5 0 4.687-3.813 8.5-8.5 8.5C7.813 21 4 17.187 4 12.5 4 7.813 7.813 4 12.5 4m0-4C5.597 0 0 5.597 0 12.5S5.597 25 12.5 25 25 19.403 25 12.5 19.403 0 12.5 0z"/>
    <circle fill="#ffffff" opacity="0.4" cx="12.5" cy="12.5" r="4.5"/>
  </g>
  <g class="sprite" id="checkbox-off" viewBox="0 0 23 23">
    <path fill="#e6ebe9" d="M20 2c.542 0 1 .458 1 1v17c0 .542-.458 1-1 1H3c-.542 0-1-.458-1-1V3c0-.542.458-1 1-1h17m0-2H3C1.35 0 0 1.35 0 3v17c0 1.65 1.35 3 3 3h17c1.65 0 3-1.35 3-3V3c0-1.65-1.35-3-3-3z"/>
  </g>
  <g class="sprite" id="checkbox-off-hover" viewBox="0 0 23 23">
    <path fill="#e6ebe9" d="M20 2c.542 0 1 .458 1 1v17c0 .542-.458 1-1 1H3c-.542 0-1-.458-1-1V3c0-.542.458-1 1-1h17m0-2H3C1.35 0 0 1.35 0 3v17c0 1.65 1.35 3 3 3h17c1.65 0 3-1.35 3-3V3c0-1.65-1.35-3-3-3z"/>
  </g>
  <g class="sprite" id="checkbox-off-disabled" viewBox="0 0 23 23">
    <path fill="#e6ebe9" d="M20 2c.542 0 1 .458 1 1v17c0 .542-.458 1-1 1H3c-.542 0-1-.458-1-1V3c0-.542.458-1 1-1h17m0-2H3C1.35 0 0 1.35 0 3v17c0 1.65 1.35 3 3 3h17c1.65 0 3-1.35 3-3V3c0-1.65-1.35-3-3-3z"/>
  </g>
  <g class="sprite" id="checkbox-on" viewBox="0 0 23 23">
    <path fill="#e6ebe9" d="M7.285 7.486l-2.829 2.829 7.783 7.783L26.171 4.166l-2.828-2.829-11.104 11.102z"/>
    <path fill="#e6ebe9" d="M21 20c0 .542-.458 1-1 1H3c-.542 0-1-.458-1-1V3c0-.542.458-1 1-1h16.908L21.493.415A2.96 2.96 0 0 0 20 0H3C1.35 0 0 1.35 0 3v17c0 1.65 1.35 3 3 3h17c1.65 0 3-1.35 3-3v-9.829l-2 2V20z"/>
  </g>
  <g class="sprite" id="checkbox-on-hover" viewBox="0 0 23 23">
    <path fill="#ffffff" d="M7.285 7.486l-2.829 2.829 7.783 7.783L26.171 4.166l-2.828-2.829-11.104 11.102z"/>
    <path fill="#ffffff" d="M21 20c0 .542-.458 1-1 1H3c-.542 0-1-.458-1-1V3c0-.542.458-1 1-1h16.908L21.493.415A2.96 2.96 0 0 0 20 0H3C1.35 0 0 1.35 0 3v17c0 1.65 1.35 3 3 3h17c1.65 0 3-1.35 3-3v-9.829l-2 2V20z"/>
  </g>
  <g class="sprite" id="checkbox-on-disabled" viewBox="0 0 23 23">
    <path fill="#e6ebe9" d="M7.285 7.486l-2.829 2.829 7.783 7.783L26.171 4.166l-2.828-2.829-11.104 11.102z"/>
    <path fill="#e6ebe9" d="M21 20c0 .542-.458 1-1 1H3c-.542 0-1-.458-1-1V3c0-.542.458-1 1-1h16.908L21.493.415A2.96 2.96 0 0 0 20 0H3C1.35 0 0 1.35 0 3v17c0 1.65 1.35 3 3 3h17c1.65 0 3-1.35 3-3v-9.829l-2 2V20z"/>
  </g>
  <g class="sprite" id="select-arrow" viewBox="0 0 9 5">
    <path fill="#ffffff" d="M4.5 5L0 0h9z"/>
  </g>
  <g class="sprite" id="select-arrow-hover" viewBox="0 0 9 5">
    <path fill="#323232" d="M4.5 5L0 0h9z"/>
  </g>
  <g class="sprite" id="filter-button" viewBox="0 0 20 23">
    <path opacity="0.3" fill="#ababab" d="M10 20C4.477 20 0 15.522 0 10v2c0 5.522 4.477 10 10 10 5.522 0 10-4.478 10-10v-2c0 5.522-4.478 10-10 10z"/>
    <circle fill="#ffffff" cx="10" cy="10" r="10"/>
    <circle fill="#ababab" cx="10" cy="10" r="2"/>
  </g>
</svg>
